<?xml version="1.0" encoding="UTF-8"?>
<svg width="15px" height="15px" viewBox="0 0 15 15" version="1.1" xmlns="http://www.w3.org/2000/svg" xmlns:xlink="http://www.w3.org/1999/xlink">
    <!-- Generator: Sketch 46.2 (44496) - http://www.bohemiancoding.com/sketch -->
    <title>错误 icon</title>
    <desc>Created with Sketch.</desc>
    <defs></defs>
    <g id="切图" stroke="none" stroke-width="1" fill="none" fill-rule="evenodd">
        <path d="M7.5,15 C6.46634077,15 5.49279231,14.8046895 4.57932692,14.4140626 C3.66586154,14.0234356 2.86959462,13.4885852 2.19050492,12.8094951 C1.51141477,12.1304054 0.976564385,11.3341385 0.585937385,10.4206731 C0.195310546,9.50720769 0,8.53365923 0,7.5 C0,6.46634077 0.195310546,5.49279231 0.585937385,4.57932692 C0.976564385,3.66586154 1.51141477,2.86959462 2.19050492,2.19050538 C2.86959462,1.51141385 3.66586154,0.976564615 4.57932692,0.585936923 C5.49279231,0.195311538 6.46634077,0 7.5,0 C8.53365923,0 9.50720769,0.195311538 10.4206731,0.585936923 C11.3341385,0.976564615 12.1304054,1.51141385 12.8094946,2.19050538 C13.4885862,2.86959462 14.0234354,3.66586154 14.4140631,4.57932692 C14.8046885,5.49279231 15,6.46634077 15,7.5 C15,8.53365923 14.8046885,9.50720769 14.4140631,10.4206731 C14.0234354,11.3341385 13.4885862,12.1304054 12.8094946,12.8094951 C12.1304054,13.4885852 11.3341385,14.0234356 10.4206731,14.4140626 C9.50720769,14.8046895 8.53365923,15 7.5,15 L7.5,15 Z M10.8934033,5.36802144 C10.9644693,5.29695318 11,5.21108272 11,5.11040552 C11,5.00972832 10.9644693,4.92385787 10.8934033,4.85279188 L10.1294425,4.10659898 C10.0583765,4.03553299 9.97546688,4 9.88071143,4 C9.78595599,4 9.7030464,4.03553299 9.63198039,4.10659898 L7.5,6.23857868 L5.35025425,4.10659898 C5.27918596,4.03553299 5.19627637,4 5.10152093,4 C5.00676776,4 4.92385817,4.03553299 4.85279216,4.10659898 L4.08883138,4.85279188 C4.02960894,4.92385787 4,5.00972832 4,5.11040552 C4,5.21108272 4.02960894,5.29695318 4.08883138,5.36802144 L6.23857713,7.50000114 L4.08883138,9.63198083 C4.02960894,9.70304682 4,9.78891728 4,9.88959448 C4,9.99027168 4.02960894,10.0761421 4.08883138,10.1472081 L4.85279216,10.893401 C4.92385817,10.964467 5.00676776,11 5.10152093,11 C5.19627637,11 5.27918596,10.964467 5.35025425,10.893401 L7.5,8.76142132 L9.63198039,10.893401 C9.7030464,10.964467 9.78595599,11 9.88071143,11 C9.97546688,11 10.0583765,10.964467 10.1294425,10.893401 L10.8934033,10.1472081 C10.9644693,10.0761421 11,9.99027168 11,9.88959448 C11,9.78891728 10.9644693,9.70304682 10.8934033,9.63198083 L8.74365523,7.50000114 L10.8934033,5.36802144 Z" id="错误-icon" fill="#D82316"></path>
    </g>
</svg>