<?xml version="1.0" encoding="UTF-8"?>
<svg width="8px" height="9px" viewBox="0 0 8 9" version="1.1" xmlns="http://www.w3.org/2000/svg" xmlns:xlink="http://www.w3.org/1999/xlink">
    <!-- Generator: Sketch 43.2 (39069) - http://www.bohemiancoding.com/sketch -->
    <title>Fill 1</title>
    <desc>Created with Sketch.</desc>
    <defs></defs>
    <g id="Page-1" stroke="none" stroke-width="1" fill="none" fill-rule="evenodd">
        <g id="Artboard" transform="translate(-999.000000, -1065.000000)" fill="#E0304C">
            <g id="Group-Copy-9" transform="translate(960.000000, 633.000000)">
                <g id="Group-2" transform="translate(39.000000, 424.000000)">
                    <path d="M8,16.3567202 C7.17342537,14.3871513 6.23382226,12.876585 5.30974978,11.704142 C6.6151855,10.2831784 7.56427955,9.44970414 7.58153581,9.43448859 L6.43744607,8.16906171 C6.3649698,8.23161454 5.44521139,9.03803888 4.16997412,10.4108199 C2.34167386,8.56973795 0.807592752,8.03465765 0.701466782,8 L0.155306299,9.6035503 C0.176876618,9.61115807 1.45987921,10.0600169 3.03537532,11.6863905 C2.07333909,12.8106509 1.01466782,14.1648352 0,15.7100592 L1.45211389,16.624683 C2.34685073,15.2612003 3.28817947,14.0422654 4.15875755,13.010989 C4.92320966,14.0304311 5.70319241,15.328825 6.40379638,17 L8,16.3567202 Z" id="Fill-1"></path>
                </g>
            </g>
        </g>
    </g>
</svg>