<?xml version="1.0" encoding="UTF-8"?>
<svg width="56px" height="11px" viewBox="0 0 56 11" version="1.1" xmlns="http://www.w3.org/2000/svg" xmlns:xlink="http://www.w3.org/1999/xlink">
    <!-- Generator: Sketch 43.2 (39069) - http://www.bohemiancoding.com/sketch -->
    <title>国资商城 copy</title>
    <desc>Created with Sketch.</desc>
    <defs>
        <polygon id="path-1" points="0 0.26337588 0 10.628063 13.3038904 10.628063 13.3038904 0.26337588 2.1202387e-20 0.26337588"></polygon>
    </defs>
    <g id="Page-1" stroke="none" stroke-width="1" fill="none" fill-rule="evenodd">
        <g id="blue" transform="translate(-806.000000, -1040.000000)">
            <g id="footer" transform="translate(806.000000, 1038.000000)">
                <g id="国资商城-copy" transform="translate(0.000000, 2.000000)">
                    <g id="Group-3" transform="translate(0.000000, 0.212986)">
                        <mask id="mask-2" fill="white">
                            <use xlink:href="#path-1"></use>
                        </mask>
                        <g id="Clip-2"></g>
                        <path d="M2.8978493,3.27839817 L2.8978493,2.35447745 L10.4893916,2.35447745 L10.4893916,3.27839817 L7.34013354,3.27839817 L7.34013354,4.54537806 L10.1835396,4.54537806 L10.1835396,5.46851909 L7.34013354,5.46851909 L7.34013354,7.70775985 L10.6122017,7.70775985 L10.6122017,8.63090089 L2.77503919,8.63090089 L2.77503919,7.70775985 L5.80226934,7.70775985 L5.80226934,5.46851909 L3.20448347,5.46851909 L3.20448347,4.54537806 L5.80226934,4.54537806 L5.80226934,3.27839817 L2.8978493,3.27839817 Z M1.70103738,9.50102369 L10.5120762,9.50102369 C11.3302888,9.57665264 11.5203707,9.17511748 11.5751268,8.89209366 L11.5751268,1.46642201 L1.70103738,1.46642201 L1.70103738,9.50102369 Z M0.0200250883,10.6276612 L-0.000312892005,0.282088199 L13.2835172,0.26337588 L13.3038552,8.96772262 C13.310113,9.83940478 12.4825136,10.6487125 11.5493132,10.6276612 L0.0200250883,10.6276612 Z" id="Fill-1" fill-opacity="0.834946784" fill="#FFFFFF" mask="url(#mask-2)"></path>
                    </g>
                    <path d="M9.88214641,7.63382392 L8.49916375,7.63382392 L8.11430658,6.23273908 C8.11430658,6.23273908 9.57864117,6.01754742 9.88214641,7.63382392" id="Fill-4" fill-opacity="0.834946784" fill="#FFFFFF"></path>
                    <path d="M17.766712,2.41059213 L15.7157049,2.40201565 C15.5467433,3.25186678 15.3120743,3.70330145 14.529062,4.5172873 L16.5699001,4.51182954 C17.1041632,3.95591775 17.5038828,3.60896018 17.766712,2.41059213" id="Fill-8" fill-opacity="0.834946784" fill="#FFFFFF"></path>
                    <path d="M17.766712,1.78622444 C17.4811981,1.20614257 16.9782242,0.721961339 16.6097939,0.47792152 L14.7692066,0.476362161 C15.0093512,0.727419098 15.4646091,1.28255121 15.5913304,1.77296988 L17.766712,1.78622444 Z" id="Fill-10" fill-opacity="0.834946784" fill="#FFFFFF"></path>
                    <path d="M25.4897472,1.78622444 L25.4897472,2.68285636 C26.4730103,2.72262004 27.1942264,1.86419244 27.2591515,1.3332304 L27.2591515,1.02525683 L22.248186,1.02291779 C22.248186,1.02291779 22.6651146,0.632298147 22.7660223,0.476362161 L20.0595064,0.476362161 C19.8749001,1.35740048 19.0433896,1.98114443 18.1493007,2.00297546 L18.146954,2.62827877 C19.0058426,2.67427988 20.0814089,2.42712135 21.2328514,1.78622444 L25.4897472,1.78622444 Z" id="Fill-12" fill-opacity="0.834946784" fill="#FFFFFF"></path>
                    <path d="M21.5980746,2.8045644 L21.5980746,2.23617773 L23.7812786,2.23617773 L23.7812786,2.7733772 L25.4122282,3.33630611 C25.6774041,3.39712115 25.8987752,3.42830834 26.0763415,3.42830834 L26.8515314,3.42830834 L26.8515314,4.47229977 L25.4122282,4.47229977 C25.0281532,4.47229977 24.70431,4.43097673 24.4383518,4.34989002 L22.7127524,3.56943041 L20.9425659,4.34989002 C20.5592732,4.45202809 20.2346477,4.50348697 19.9694718,4.50348697 L18.5598933,4.50348697 L18.5598933,3.45871586 L19.3499456,3.45871586 C19.6151216,3.45871586 19.8654352,3.4181725 20.1016686,3.33630611 L21.5980746,2.8045644 Z" id="Fill-14" fill-opacity="0.834946784" fill="#FFFFFF"></path>
                    <path d="M24.8587222,9.49468601 C24.4300602,9.50872024 24.4042466,9.44400681 24.1023058,9.34264842 L22.4760496,8.01563318 L22.4760496,6.47108724 L19.8039519,6.47108724 L19.8039519,8.06553269 L18.0486277,9.34264842 C17.7795406,9.47831273 17.451004,9.49000793 17.148281,9.49000793 L15.1692391,9.49000793 L15.1692391,10.8240403 L17.8382079,10.8240403 C18.1409309,10.8240403 18.566464,10.8427526 19.0076417,10.6057299 L21.1439119,9.07599788 L23.2856577,10.5979331 C23.5883807,10.7320381 23.5547448,10.7538691 24.0483319,10.8240403 L25.9757467,10.8209216 C27.1217136,10.6610872 27.2820708,9.49780473 27.2820708,9.49780473 L24.8587222,9.49468601 Z" id="Fill-16" fill-opacity="0.834946784" fill="#FFFFFF"></path>
                    <path d="M37.1994958,3.13881319 L32.8283945,3.13881319 L32.2558021,2.14628063 L37.8354488,2.14628063 L37.1994958,3.13881319 Z M41.5502591,2.14628063 L41.5502591,1.07655977 L36.1489609,1.07655977 L36.1466142,0.86448683 L33.8937917,0.505834062 L33.8937917,1.07655977 L28.4932757,1.07655977 L28.4932757,2.14628063 L30.4879623,2.14628063 L31.0300477,3.13881319 L28.7670563,3.13881319 L28.7670563,10.8412712 C28.7670563,10.8412712 30.4840511,10.8311354 30.4840511,9.31387823 L30.4840511,4.20073725 L32.8377812,4.19761853 L32.5804276,4.89621175 C32.5123735,5.13557349 32.3793944,5.25486451 32.1799258,5.25486451 L31.3288595,5.25486451 L31.3288595,6.3277041 L32.5804276,6.3277041 C33.1725757,6.3277041 33.5730774,6.23180347 33.7811506,6.04156156 C33.990006,5.85053998 34.1425409,5.59948304 34.2395374,5.28917043 L34.5453893,4.19761853 L35.4621629,4.19761853 L35.7609748,5.39598658 C35.8188598,5.6205344 35.9393232,5.82013246 36.1215828,5.99634013 C36.3030602,6.17254779 36.7583181,6.25987194 37.485792,6.25987194 L38.7882049,6.25987194 L38.7882049,5.17065908 L38.0677711,5.17065908 C37.8299732,5.17065908 37.6719627,5.14570932 37.5945219,5.09503013 C37.5170812,5.04435093 37.4513738,4.92973798 37.3981822,4.74963192 L37.2597275,4.19761853 L39.5735639,4.20073725 L39.5759106,10.8412712 L39.5751283,6.94443092 L39.5759106,10.8412712 C39.5759106,10.8412712 41.298381,10.8350338 41.298381,9.32167503 C41.298381,7.80753661 41.291341,3.13881319 41.291341,3.13881319 L38.8101074,3.13881319 L39.4358914,2.14628063 L41.5502591,2.14628063 Z" id="Fill-18" fill-opacity="0.834946784" fill="#FFFFFF"></path>
                    <path d="M33.315802,7.85197836 L36.699729,7.85197836 L36.699729,9.10024593 C36.699729,9.1711968 36.662182,9.23279152 36.5870879,9.28580975 C36.5112116,9.33804831 36.4134328,9.36377775 36.2921872,9.36377775 L33.315802,9.36377775 L33.315802,7.85197836 Z M31.6269674,10.4257018 L37.2934416,10.4257018 C38.1069608,10.4257018 38.4386263,10.1434577 38.4386263,9.35364191 L38.4386263,6.7822575 L31.6269674,6.7822575 L31.6269674,10.4257018 Z" id="Fill-20" fill-opacity="0.834946784" fill="#FFFFFF"></path>
                    <polygon id="Fill-22" fill-opacity="0.834946784" fill="#FFFFFF" points="45.6355336 2.14822983 46.6187967 2.14822983 46.6187967 1.07772929 45.6355336 1.07772929 45.6402269 0.883588988 43.9193209 0.438391748 43.9154098 1.07772929 42.8202878 1.07772929 42.8202878 2.14822983 43.9154098 2.14822983 43.9271432 9.48267893 42.8328034 9.48267893 42.8328034 10.8408814 46.6493037 10.8408814 46.6493037 9.48267893 45.6480492 9.48267893"></polygon>
                    <path d="M47.2386358,9.39987693 L47.2386358,9.26187358 C47.2441114,9.31333245 47.2433291,9.35855389 47.2386358,9.39987693 L47.2386358,9.39987693 Z M54.1926606,0.520881885 L54.1910961,1.07835303 L53.6623086,1.07835303 L53.6623086,0.877195613 L51.8185925,0.431998373 L51.817028,1.07835303 L47.2362891,1.07835303 L47.2386358,10.812657 C47.2386358,10.812657 48.9611062,10.8204538 48.9634529,9.31255277 L48.9611062,4.51284313 L49.5821969,4.51284313 L49.5798502,7.34308127 L49.5767213,10.8204538 C49.5767213,10.8204538 51.2921517,10.8212334 51.2913694,9.31489181 L51.2984095,3.43610514 L48.9634529,3.43532546 L48.9611062,2.1480739 L51.817028,2.1480739 L51.817028,9.31956989 C51.817028,10.2442703 52.1854583,10.8204538 53.2641535,10.8204538 L54.6932878,10.8204538 C55.7008,10.8204538 55.7712007,9.70629114 55.7712007,9.70629114 L53.9047999,9.70629114 C53.6404062,9.71720666 53.6623086,9.27045006 53.6623086,8.83928706 L53.6623086,8.73792867 L54.8356536,8.73792867 C55.8329969,8.71921635 55.7923209,8.14147352 55.7907565,7.30643631 L55.7876276,3.42440994 L54.0831484,3.43610514 L54.0862773,7.21287472 C54.0862773,7.42884606 53.9939741,7.65807196 53.7733853,7.6682078 L53.6623086,7.6682078 L53.6599619,2.1480739 L55.8908819,2.1480739 L55.8908819,1.07835303 L54.1926606,0.520881885 Z" id="Fill-26" fill-opacity="0.834946784" fill="#FFFFFF"></path>
                    <polygon id="Fill-6" fill-opacity="0.834946784" fill="#FFFFFF" points="26.6248411 9.19318378 26.6248411 4.77551729 15.7189903 4.77551729 15.7189903 9.19318378 17.4258162 9.1963025 17.4258162 5.76415145 24.917233 5.79611832 24.917233 9.20643834"></polygon>
                </g>
            </g>
        </g>
    </g>
</svg>