<?xml version="1.0" encoding="UTF-8"?>
<svg width="80px" height="80px" viewBox="0 0 80 80" version="1.1" xmlns="http://www.w3.org/2000/svg" xmlns:xlink="http://www.w3.org/1999/xlink">
    <!-- Generator: Sketch 43.2 (39069) - http://www.bohemiancoding.com/sketch -->
    <title>Fill 1 Copy</title>
    <desc>Created with Sketch.</desc>
    <defs></defs>
    <g id="Page-1" stroke="none" stroke-width="1" fill="none" fill-rule="evenodd">
        <g id="Artboard" transform="translate(-720.000000, -1592.000000)" fill="#6BADEC">
            <g id="Group-5" transform="translate(659.000000, 1536.000000)">
                <path d="M93.5317815,107.195028 C90.0018667,101.741222 85.2096591,97.1867889 79.5172439,93.9004891 L77.8486479,96.7913316 C84.0291274,100.35879 89.0532699,105.550626 92.3754445,111.807861 L94.1775282,115.201785 L95.4273066,111.567583 C99.8766178,98.6251186 109.734683,88.2990124 122.471076,83.2356579 L121.238818,80.1345723 C108.692645,85.1211714 98.7561556,94.8766178 93.5317815,107.195028 M100.999583,133.496272 C80.3240101,133.496272 63.502894,116.675156 63.502894,95.9995829 C63.502894,75.3240101 80.3240101,58.502894 100.999583,58.502894 C121.675156,58.502894 138.497106,75.3240101 138.497106,95.9995829 C138.497106,116.675156 121.675156,133.496272 100.999583,133.496272 M100.999583,56 C78.9440812,56 61,73.9440812 61,95.9995829 C61,118.055919 78.9440812,135.999166 100.999583,135.999166 C123.055919,135.999166 141,118.055919 141,95.9995829 C141,73.9440812 123.055919,56 100.999583,56" id="Fill-1-Copy"></path>
            </g>
        </g>
    </g>
</svg>